<?xml version="1.0" encoding="UTF-8"?>
<svg xmlns="http://www.w3.org/2000/svg" id="Livello_1" viewBox="0 0 2267.7 501">
  <g id="Primo_piano">
    <g>
      <path d="m844.9,300.4l-29.2-67h-145.3l-28.8,67h-39.8L724.3,24.6h39.4l122.2,275.8h-41Zm-159.5-101.3h115.8l-58.3-134-57.5,134Z" fill="#0c076c" fill-rule="evenodd"></path>
      <polygon points="926.1 24.6 963.9 24.6 963.9 266.1 1084.5 266.1 1084.5 300.4 926.1 300.4 926.1 24.6" fill="#0c076c" fill-rule="evenodd"></polygon>
      <rect x="1132.6" y="24.6" width="37.8" height="275.8" fill="#0c076c"></rect>
      <path d="m1454.1,300.4l-29.2-67h-145.4l-28.8,67h-39.8l122.6-275.8h39.4l122.1,275.8h-40.9Zm-159.6-101.3h115.8l-58.3-134-57.5,134Z" fill="#0c076c" fill-rule="evenodd"></path>
      <polygon points="1731.5 24.6 1768.9 24.6 1768.9 300.4 1730.7 300.4 1573.1 86.8 1573.1 300.4 1535.2 300.4 1535.2 24.6 1573.5 24.6 1731.5 238.5 1731.5 24.6" fill="#0c076c" fill-rule="evenodd"></polygon>
      <polygon points="1812.6 24.6 2028.2 24.6 2028.2 59.2 1939.1 59.2 1939.1 300.4 1901.3 300.4 1901.3 59.2 1812.6 59.2 1812.6 24.6" fill="#0c076c" fill-rule="evenodd"></polygon>
      <polygon points="2071.5 24.6 2263 24.6 2263 58.8 2109.3 58.8 2109.3 143.9 2246.8 143.9 2246.8 178.2 2109.3 178.2 2109.3 266.1 2267.7 266.1 2267.7 300.4 2071.5 300.4 2071.5 24.6" fill="#0c076c" fill-rule="evenodd"></polygon>
      <path d="m286.6,360.3c21.3-76.9,12.5-179.1-.2-258.6,84.8,99.7,173.5,240.4.2,258.6Zm-164.4,105.3c-49.1-29.4-87.3-75.1-107.2-129.6,98.1,25,175.5,38,235.7,41.7-21.7,86.6-85.6,94-128.5,87.9ZM266.4,0c131.2,8.1,235,117,235,250.3s-112.3,250.7-250.7,250.7c-42.8,0-83.2-10.8-118.5-29.7,82,8,126.5-32.2,148.5-92.6,304.6,2.4,89.9-276-14.3-378.7ZM0,250.3C0,130.3,84.4,29.9,197,5.3c57.7,177.4,69,288.3,57,356.9-56.9,1-135.2-8.2-240.8-31.2C4.7,305.6,0,278.5,0,250.3Z" fill="#0c076c"></path>
      <g>
        <path d="m678.7,427h12v36.4c-5,4-10.9,7.1-17.5,9.5-6.7,2.4-13.4,3.5-20,3.5-9.5,0-18.3-2.2-26.2-6.7s-14.2-10.6-18.8-18.4c-4.6-7.8-6.9-16.3-6.9-25.5s2.3-17.7,6.9-25.4c4.6-7.7,10.9-13.7,19-18.2,8-4.4,16.9-6.7,26.6-6.7,6.9,0,13.6,1.2,20.2,3.7,6.6,2.5,12.2,5.8,17.1,10l-7.8,9.9c-4-3.7-8.5-6.5-13.7-8.6-5.1-2-10.4-3-15.8-3-7.1,0-13.6,1.7-19.5,5.1-5.9,3.4-10.6,8-14.1,13.9-3.4,5.9-5.2,12.3-5.2,19.3s1.7,13.4,5.2,19.3c3.5,5.9,8.2,10.6,14.2,14,5.9,3.4,12.5,5.2,19.5,5.2,4.2,0,8.4-.7,12.7-2.1,4.3-1.4,8.3-3.3,12-5.7v-29.5h.1Z" fill="#0c076c"></path>
        <path d="m779.1,475.4l-19.7-31.1c-2.3.2-4.1.3-5.5.3h-25.2v30.9h-13.6v-99.1h38.8c12.5,0,22.2,2.9,29.1,8.7,6.8,5.8,10.3,14,10.3,24.7,0,8-1.9,14.8-5.6,20.2-3.7,5.5-9.1,9.4-16.1,11.9l23.1,33.5h-15.6Zm-25.2-43.2c8.5,0,15-1.9,19.5-5.6,4.5-3.7,6.8-9.2,6.8-16.5s-2.3-12.4-6.8-16.1c-4.5-3.6-11-5.4-19.5-5.4h-25.2v43.6h25.2Z" fill="#0c076c"></path>
        <path d="m885.6,382.1c8,4.4,14.3,10.5,18.9,18.2,4.6,7.7,6.9,16.2,6.9,25.4s-2.3,17.8-6.9,25.5c-4.6,7.8-10.9,13.9-18.9,18.4s-16.7,6.7-26.3,6.7-18.3-2.2-26.3-6.7-14.3-10.6-18.9-18.4c-4.6-7.8-6.9-16.3-6.9-25.5s2.3-17.7,6.9-25.4c4.6-7.7,10.9-13.7,18.8-18.2,7.9-4.4,16.7-6.7,26.3-6.7s18.4,2.3,26.4,6.7Zm-45.3,10.6c-5.9,3.4-10.6,8-14.1,13.8s-5.2,12.2-5.2,19.2,1.7,13.4,5.2,19.2c3.5,5.9,8.2,10.5,14.1,13.9,5.9,3.4,12.3,5.2,19.2,5.2s13.2-1.7,19-5.2c5.8-3.4,10.4-8.1,13.9-13.9,3.4-5.9,5.2-12.3,5.2-19.2s-1.7-13.4-5.2-19.2c-3.4-5.8-8.1-10.4-13.9-13.8-5.8-3.4-12.2-5.1-19-5.1s-13.3,1.7-19.2,5.1Z" fill="#0c076c"></path>
        <path d="m948.6,456.3c5,5.1,12,7.7,20.9,7.7s15.7-2.6,20.7-7.7c5-5.1,7.5-12.3,7.5-21.4v-58.6h13.6v58.6c0,12.9-3.7,23.1-11.1,30.4-7.4,7.4-17.6,11-30.6,11s-23.4-3.7-30.9-11c-7.5-7.4-11.2-17.5-11.2-30.4v-58.6h13.6v58.6c-.1,9.1,2.4,16.3,7.5,21.4Z" fill="#0c076c"></path>
        <path d="m1102.8,385.1c6.7,5.9,10.1,14.1,10.1,24.6s-3.4,19.6-10.2,25.7c-6.8,6.1-16.3,9.1-28.6,9.1h-24.6v30.9h-13.6v-99.1h38.2c12.4,0,22,2.9,28.7,8.8Zm-9.7,41.5c4.5-3.7,6.8-9.2,6.8-16.5s-2.3-12.4-6.8-16.1c-4.5-3.6-11-5.4-19.5-5.4l-24.1.1v43.5h24.1c8.5,0,15-1.9,19.5-5.6Z" fill="#0c076c"></path>
      </g>
    </g>
  </g>
</svg>
